ffmpeg started on 2025-06-05 at 20:12:45
Report written to "D:\Convert\FFMetrics\reports\ssim_report-6.txt"
Log level: 32
Command line:
ffmpeg -hide_banner -nostdin -i "G:\\\xc0\xed\xe8\xec\xe5\\\xce\xed\xe3\xee\xe8\xed\xe3\xe8\\!_36_\xce\xf1\xe5\xed\xfc_2024\\DreamCast\\\xcd\xe5\xe3\xe0\xf2\xe8\xe2\xed\xfb\xe9 \xef\xee\xe7\xe8\xf2\xe8\xe2\xed\xfb\xe9 \xf0\xfb\xe1\xe0\xea\\[DC] NegaPosi Angler - 03_Telegram_HEVC.mkv" -i "G:\\\xc0\xed\xe8\xec\xe5\\\xce\xed\xe3\xee\xe8\xed\xe3\xe8\\!_36_\xce\xf1\xe5\xed\xfc_2024\\DreamCast\\\xcd\xe5\xe3\xe0\xf2\xe8\xe2\xed\xfb\xe9 \xef\xee\xe7\xe8\xf2\xe8\xe2\xed\xfb\xe9 \xf0\xfb\xe1\xe0\xea\\[DC] NegaPosi Angler - 03_Telegram.mp4" -lavfi "[0:v]settb=AVTB,setpts=PTS-STARTPTS,format=pix_fmts=yuv420p10,fps=24000/1001,scale=1920:1080:flags=bicubic[main];[1:v]settb=AVTB,setpts=PTS-STARTPTS,format=pix_fmts=yuv420p,fps=24000/1001,scale=1920:1080:flags=bicubic[ref];[main][ref]ssim=eof_action=endall:stats_file='D\\:/Convert/FFMetrics/logs/ssim_logfile-6.txt'" -f null -
Input #0, matroska,webm, from 'G:\Аниме\Онгоинги\!_36_Осень_2024\DreamCast\Негативный позитивный рыбак\[DC] NegaPosi Angler - 03_Telegram_HEVC.mkv':
  Metadata:
    COMPATIBLE_BRANDS: isomiso2avc1mp41
    MAJOR_BRAND     : isom
    MINOR_VERSION   : 512
    ENCODER         : Lavf61.7.100
  Duration: 00:23:46.77, start: -0.021000, bitrate: 1010 kb/s
  Stream #0:0: Video: hevc (Main 10), yuv420p10le(tv, bt709, progressive), 1920x1080 [SAR 1:1 DAR 16:9], 23.98 fps, 23.98 tbr, 1k tbn (default)
      Metadata:
        HANDLER_NAME    : VideoHandler
        VENDOR_ID       : [0][0][0][0]
        ENCODER         : Lavc61.19.100 libx265
        BPS             : 813457
        DURATION        : 00:23:46.591708333
        NUMBER_OF_FRAMES: 34204
        NUMBER_OF_BYTES : 145058870
        _STATISTICS_WRITING_APP: mkvpropedit v66.0.0 ('Josie') 64-bit
        _STATISTICS_WRITING_DATE_UTC: 2025-05-31 12:44:31
        _STATISTICS_TAGS: BPS DURATION NUMBER_OF_FRAMES NUMBER_OF_BYTES
  Stream #0:1: Audio: aac (LC), 48000 Hz, stereo, fltp (default)
      Metadata:
        HANDLER_NAME    : SoundHandler
        VENDOR_ID       : [0][0][0][0]
        ENCODER         : Lavc61.19.100 aac
        BPS             : 193350
        DURATION        : 00:23:46.773000000
        NUMBER_OF_FRAMES: 66881
        NUMBER_OF_BYTES : 34483489
        _STATISTICS_WRITING_APP: mkvpropedit v66.0.0 ('Josie') 64-bit
        _STATISTICS_WRITING_DATE_UTC: 2025-05-31 12:44:31
        _STATISTICS_TAGS: BPS DURATION NUMBER_OF_FRAMES NUMBER_OF_BYTES
Input #1, mov,mp4,m4a,3gp,3g2,mj2, from 'G:\Аниме\Онгоинги\!_36_Осень_2024\DreamCast\Негативный позитивный рыбак\[DC] NegaPosi Angler - 03_Telegram.mp4':
  Metadata:
    major_brand     : isom
    minor_version   : 512
    compatible_brands: isomiso2avc1mp41
    encoder         : Lavf60.16.100
  Duration: 00:23:46.72, start: 0.000000, bitrate: 3843 kb/s
  Stream #1:0[0x1](und): Video: h264 (High) (avc1 / 0x31637661), yuv420p(tv, bt709, progressive), 1920x1080 [SAR 1:1 DAR 16:9], 3695 kb/s, 23.98 fps, 23.98 tbr, 24k tbn (default)
      Metadata:
        handler_name    : VideoHandler
        vendor_id       : [0][0][0][0]
        encoder         : Lavc60.31.102 h264_qsv
  Stream #1:1[0x2](und): Audio: aac (HE-AACv2) (mp4a / 0x6134706D), 48000 Hz, stereo, fltp, 144 kb/s (default)
      Metadata:
        handler_name    : SoundHandler
        vendor_id       : [0][0][0][0]
Stream mapping:
  Stream #0:0 (hevc) -> settb:default
  Stream #1:0 (h264) -> settb:default
  ssim:default -> Stream #0:0 (wrapped_avframe)
  Stream #0:1 -> #0:1 (aac (native) -> pcm_s16le (native))
Output #0, null, to 'pipe:':
  Metadata:
    COMPATIBLE_BRANDS: isomiso2avc1mp41
    MAJOR_BRAND     : isom
    MINOR_VERSION   : 512
    encoder         : Lavf61.7.100
  Stream #0:0: Video: wrapped_avframe, yuv420p10le(tv, bt709, progressive), 1920x1080 [SAR 1:1 DAR 16:9], q=2-31, 200 kb/s, 23.98 fps, 23.98 tbn
      Metadata:
        encoder         : Lavc61.19.100 wrapped_avframe
  Stream #0:1: Audio: pcm_s16le, 48000 Hz, stereo, s16, 1536 kb/s (default)
      Metadata:
        HANDLER_NAME    : SoundHandler
        VENDOR_ID       : [0][0][0][0]
        _STATISTICS_TAGS: BPS DURATION NUMBER_OF_FRAMES NUMBER_OF_BYTES
        BPS             : 193350
        DURATION        : 00:23:46.773000000
        NUMBER_OF_FRAMES: 66881
        NUMBER_OF_BYTES : 34483489
        _STATISTICS_WRITING_APP: mkvpropedit v66.0.0 ('Josie') 64-bit
        _STATISTICS_WRITING_DATE_UTC: 2025-05-31 12:44:31
        encoder         : Lavc61.19.100 pcm_s16le
frame=  174 fps=0.0 q=-0.0 size=N/A time=00:00:07.25 bitrate=N/A speed=  14x    frame=  402 fps=393 q=-0.0 size=N/A time=00:00:16.76 bitrate=N/A speed=16.4x    frame=  613 fps=396 q=-0.0 size=N/A time=00:00:25.56 bitrate=N/A speed=16.5x    frame=  861 fps=416 q=-0.0 size=N/A time=00:00:35.91 bitrate=N/A speed=17.3x    frame= 1120 fps=432 q=-0.0 size=N/A time=00:00:46.71 bitrate=N/A speed=  18x    frame= 1354 fps=434 q=-0.0 size=N/A time=00:00:56.47 bitrate=N/A speed=18.1x    frame= 1571 fps=432 q=-0.0 size=N/A time=00:01:05.52 bitrate=N/A speed=  18x    frame= 1729 fps=417 q=-0.0 size=N/A time=00:01:12.11 bitrate=N/A speed=17.4x    frame= 1912 fps=410 q=-0.0 size=N/A time=00:01:19.74 bitrate=N/A speed=17.1x    frame= 2103 fps=405 q=-0.0 size=N/A time=00:01:27.71 bitrate=N/A speed=16.9x    frame= 2314 fps=406 q=-0.0 size=N/A time=00:01:36.51 bitrate=N/A speed=16.9x    frame= 2491 fps=401 q=-0.0 size=N/A time=00:01:43.89 bitrate=N/A speed=16.7x    frame= 2678 fps=398 q=-0.0 size=N/A time=00:01:51.69 bitrate=N/A speed=16.6x    frame= 2876 fps=397 q=-0.0 size=N/A time=00:01:59.95 bitrate=N/A speed=16.6x    frame= 3077 fps=396 q=-0.0 size=N/A time=00:02:08.33 bitrate=N/A speed=16.5x    frame= 3284 fps=397 q=-0.0 size=N/A time=00:02:16.97 bitrate=N/A speed=16.5x    frame= 3514 fps=400 q=-0.0 size=N/A time=00:02:26.56 bitrate=N/A speed=16.7x    frame= 3777 fps=406 q=-0.0 size=N/A time=00:02:37.53 bitrate=N/A speed=16.9x    frame= 3995 fps=407 q=-0.0 size=N/A time=00:02:46.62 bitrate=N/A speed=  17x    frame= 4247 fps=411 q=-0.0 size=N/A time=00:02:57.13 bitrate=N/A speed=17.1x    frame= 4515 fps=416 q=-0.0 size=N/A time=00:03:08.31 bitrate=N/A speed=17.3x    frame= 4766 fps=419 q=-0.0 size=N/A time=00:03:18.78 bitrate=N/A speed=17.5x    frame= 5022 fps=422 q=-0.0 size=N/A time=00:03:29.45 bitrate=N/A speed=17.6x    frame= 5278 fps=426 q=-0.0 size=N/A time=00:03:40.13 bitrate=N/A speed=17.8x    frame= 5535 fps=428 q=-0.0 size=N/A time=00:03:50.85 bitrate=N/A speed=17.9x    frame= 5779 fps=430 q=-0.0 size=N/A time=00:04:01.03 bitrate=N/A speed=17.9x    frame= 6045 fps=433 q=-0.0 size=N/A time=00:04:12.12 bitrate=N/A speed=18.1x    frame= 6280 fps=434 q=-0.0 size=N/A time=00:04:21.92 bitrate=N/A speed=18.1x    frame= 6546 fps=437 q=-0.0 size=N/A time=00:04:33.02 bitrate=N/A speed=18.2x    frame= 6803 fps=439 q=-0.0 size=N/A time=00:04:43.74 bitrate=N/A speed=18.3x    frame= 7043 fps=440 q=-0.0 size=N/A time=00:04:53.75 bitrate=N/A speed=18.3x    frame= 7287 fps=441 q=-0.0 size=N/A time=00:05:03.92 bitrate=N/A speed=18.4x    frame= 7559 fps=444 q=-0.0 size=N/A time=00:05:15.27 bitrate=N/A speed=18.5x    frame= 7824 fps=445 q=-0.0 size=N/A time=00:05:26.32 bitrate=N/A speed=18.6x    frame= 8081 fps=447 q=-0.0 size=N/A time=00:05:37.04 bitrate=N/A speed=18.7x    frame= 8339 fps=448 q=-0.0 size=N/A time=00:05:47.80 bitrate=N/A speed=18.7x    frame= 8592 fps=450 q=-0.0 size=N/A time=00:05:58.35 bitrate=N/A speed=18.8x    frame= 8842 fps=451 q=-0.0 size=N/A time=00:06:08.78 bitrate=N/A speed=18.8x    frame= 9038 fps=449 q=-0.0 size=N/A time=00:06:16.95 bitrate=N/A speed=18.7x    frame= 9290 fps=450 q=-0.0 size=N/A time=00:06:27.47 bitrate=N/A speed=18.8x    frame= 9544 fps=451 q=-0.0 size=N/A time=00:06:38.06 bitrate=N/A speed=18.8x    frame= 9783 fps=451 q=-0.0 size=N/A time=00:06:48.03 bitrate=N/A speed=18.8x    frame=10045 fps=452 q=-0.0 size=N/A time=00:06:58.96 bitrate=N/A speed=18.9x    frame=10285 fps=453 q=-0.0 size=N/A time=00:07:08.97 bitrate=N/A speed=18.9x    frame=10555 fps=454 q=-0.0 size=N/A time=00:07:20.23 bitrate=N/A speed=18.9x    frame=10819 fps=455 q=-0.0 size=N/A time=00:07:31.24 bitrate=N/A speed=  19x    frame=11087 fps=457 q=-0.0 size=N/A time=00:07:42.42 bitrate=N/A speed=19.1x    frame=11325 fps=457 q=-0.0 size=N/A time=00:07:52.34 bitrate=N/A speed=19.1x    frame=11487 fps=454 q=-0.0 size=N/A time=00:07:59.10 bitrate=N/A speed=18.9x    frame=11731 fps=454 q=-0.0 size=N/A time=00:08:09.28 bitrate=N/A speed=18.9x    frame=11996 fps=455 q=-0.0 size=N/A time=00:08:20.33 bitrate=N/A speed=  19x    frame=12243 fps=456 q=-0.0 size=N/A time=00:08:30.63 bitrate=N/A speed=  19x    frame=12454 fps=455 q=-0.0 size=N/A time=00:08:39.43 bitrate=N/A speed=  19x    frame=12671 fps=454 q=-0.0 size=N/A time=00:08:48.48 bitrate=N/A speed=18.9x    frame=12868 fps=453 q=-0.0 size=N/A time=00:08:56.70 bitrate=N/A speed=18.9x    frame=13077 fps=452 q=-0.0 size=N/A time=00:09:05.41 bitrate=N/A speed=18.9x    frame=13322 fps=453 q=-0.0 size=N/A time=00:09:15.63 bitrate=N/A speed=18.9x    frame=13550 fps=452 q=-0.0 size=N/A time=00:09:25.14 bitrate=N/A speed=18.9x    frame=13793 fps=453 q=-0.0 size=N/A time=00:09:35.28 bitrate=N/A speed=18.9x    frame=14044 fps=453 q=-0.0 size=N/A time=00:09:45.75 bitrate=N/A speed=18.9x    frame=14279 fps=453 q=-0.0 size=N/A time=00:09:55.55 bitrate=N/A speed=18.9x    frame=14507 fps=453 q=-0.0 size=N/A time=00:10:05.06 bitrate=N/A speed=18.9x    frame=14752 fps=454 q=-0.0 size=N/A time=00:10:15.28 bitrate=N/A speed=18.9x    frame=15001 fps=454 q=-0.0 size=N/A time=00:10:25.66 bitrate=N/A speed=18.9x    frame=15250 fps=454 q=-0.0 size=N/A time=00:10:36.05 bitrate=N/A speed=  19x    frame=15471 fps=454 q=-0.0 size=N/A time=00:10:45.26 bitrate=N/A speed=18.9x    frame=15726 fps=455 q=-0.0 size=N/A time=00:10:55.90 bitrate=N/A speed=  19x    frame=15946 fps=454 q=-0.0 size=N/A time=00:11:05.08 bitrate=N/A speed=18.9x    frame=16190 fps=455 q=-0.0 size=N/A time=00:11:15.25 bitrate=N/A speed=  19x    frame=16463 fps=455 q=-0.0 size=N/A time=00:11:26.64 bitrate=N/A speed=  19x    frame=16719 fps=456 q=-0.0 size=N/A time=00:11:37.32 bitrate=N/A speed=  19x    frame=16938 fps=456 q=-0.0 size=N/A time=00:11:46.45 bitrate=N/A speed=  19x    frame=17196 fps=456 q=-0.0 size=N/A time=00:11:57.21 bitrate=N/A speed=  19x    frame=17445 fps=457 q=-0.0 size=N/A time=00:12:07.60 bitrate=N/A speed=  19x    frame=17705 fps=457 q=-0.0 size=N/A time=00:12:18.44 bitrate=N/A speed=19.1x    frame=17939 fps=457 q=-0.0 size=N/A time=00:12:28.20 bitrate=N/A speed=19.1x    frame=18166 fps=457 q=-0.0 size=N/A time=00:12:37.67 bitrate=N/A speed=19.1x    frame=18417 fps=457 q=-0.0 size=N/A time=00:12:48.14 bitrate=N/A speed=19.1x    frame=18673 fps=458 q=-0.0 size=N/A time=00:12:58.81 bitrate=N/A speed=19.1x    frame=18938 fps=458 q=-0.0 size=N/A time=00:13:09.87 bitrate=N/A speed=19.1x    frame=19188 fps=459 q=-0.0 size=N/A time=00:13:20.29 bitrate=N/A speed=19.1x    frame=19418 fps=459 q=-0.0 size=N/A time=00:13:29.89 bitrate=N/A speed=19.1x    frame=19650 fps=458 q=-0.0 size=N/A time=00:13:39.56 bitrate=N/A speed=19.1x    frame=19870 fps=458 q=-0.0 size=N/A time=00:13:48.74 bitrate=N/A speed=19.1x    frame=20079 fps=458 q=-0.0 size=N/A time=00:13:57.46 bitrate=N/A speed=19.1x    frame=20324 fps=458 q=-0.0 size=N/A time=00:14:07.68 bitrate=N/A speed=19.1x    frame=20548 fps=457 q=-0.0 size=N/A time=00:14:17.02 bitrate=N/A speed=19.1x    frame=20796 fps=458 q=-0.0 size=N/A time=00:14:27.36 bitrate=N/A speed=19.1x    frame=21015 fps=457 q=-0.0 size=N/A time=00:14:36.50 bitrate=N/A speed=19.1x    frame=21220 fps=457 q=-0.0 size=N/A time=00:14:45.05 bitrate=N/A speed=  19x    frame=21434 fps=456 q=-0.0 size=N/A time=00:14:53.97 bitrate=N/A speed=  19x    frame=21654 fps=456 q=-0.0 size=N/A time=00:15:03.15 bitrate=N/A speed=  19x    frame=21874 fps=456 q=-0.0 size=N/A time=00:15:12.32 bitrate=N/A speed=  19x    frame=22120 fps=456 q=-0.0 size=N/A time=00:15:22.58 bitrate=N/A speed=  19x    frame=22362 fps=456 q=-0.0 size=N/A time=00:15:32.68 bitrate=N/A speed=  19x    frame=22597 fps=456 q=-0.0 size=N/A time=00:15:42.48 bitrate=N/A speed=  19x    frame=22839 fps=456 q=-0.0 size=N/A time=00:15:52.57 bitrate=N/A speed=  19x    frame=23047 fps=455 q=-0.0 size=N/A time=00:16:01.25 bitrate=N/A speed=  19x    frame=23266 fps=455 q=-0.0 size=N/A time=00:16:10.38 bitrate=N/A speed=  19x    frame=23511 fps=455 q=-0.0 size=N/A time=00:16:20.60 bitrate=N/A speed=  19x    frame=23715 fps=455 q=-0.0 size=N/A time=00:16:29.11 bitrate=N/A speed=  19x    frame=23950 fps=455 q=-0.0 size=N/A time=00:16:38.91 bitrate=N/A speed=  19x    frame=24202 fps=455 q=-0.0 size=N/A time=00:16:49.42 bitrate=N/A speed=  19x    frame=24427 fps=455 q=-0.0 size=N/A time=00:16:58.80 bitrate=N/A speed=  19x    frame=24696 fps=456 q=-0.0 size=N/A time=00:17:10.02 bitrate=N/A speed=  19x    frame=24928 fps=456 q=-0.0 size=N/A time=00:17:19.70 bitrate=N/A speed=  19x    frame=25193 fps=456 q=-0.0 size=N/A time=00:17:30.75 bitrate=N/A speed=  19x    frame=25438 fps=456 q=-0.0 size=N/A time=00:17:40.97 bitrate=N/A speed=  19x    frame=25722 fps=457 q=-0.0 size=N/A time=00:17:52.82 bitrate=N/A speed=19.1x    frame=25966 fps=457 q=-0.0 size=N/A time=00:18:02.99 bitrate=N/A speed=19.1x    frame=26229 fps=458 q=-0.0 size=N/A time=00:18:13.96 bitrate=N/A speed=19.1x    frame=26484 fps=458 q=-0.0 size=N/A time=00:18:24.60 bitrate=N/A speed=19.1x    frame=26734 fps=458 q=-0.0 size=N/A time=00:18:35.03 bitrate=N/A speed=19.1x    frame=26958 fps=458 q=-0.0 size=N/A time=00:18:44.37 bitrate=N/A speed=19.1x    frame=27219 fps=459 q=-0.0 size=N/A time=00:18:55.25 bitrate=N/A speed=19.1x    frame=27474 fps=459 q=-0.0 size=N/A time=00:19:05.89 bitrate=N/A speed=19.1x    frame=27764 fps=460 q=-0.0 size=N/A time=00:19:17.99 bitrate=N/A speed=19.2x    frame=28032 fps=460 q=-0.0 size=N/A time=00:19:29.16 bitrate=N/A speed=19.2x    frame=28305 fps=461 q=-0.0 size=N/A time=00:19:40.55 bitrate=N/A speed=19.2x    frame=28557 fps=461 q=-0.0 size=N/A time=00:19:51.06 bitrate=N/A speed=19.2x    frame=28794 fps=461 q=-0.0 size=N/A time=00:20:00.94 bitrate=N/A speed=19.2x    frame=29057 fps=461 q=-0.0 size=N/A time=00:20:11.91 bitrate=N/A speed=19.2x    frame=29327 fps=462 q=-0.0 size=N/A time=00:20:23.18 bitrate=N/A speed=19.3x    frame=29587 fps=462 q=-0.0 size=N/A time=00:20:34.02 bitrate=N/A speed=19.3x    frame=29855 fps=463 q=-0.0 size=N/A time=00:20:45.20 bitrate=N/A speed=19.3x    frame=30096 fps=463 q=-0.0 size=N/A time=00:20:55.25 bitrate=N/A speed=19.3x    frame=30358 fps=463 q=-0.0 size=N/A time=00:21:06.18 bitrate=N/A speed=19.3x    frame=30621 fps=463 q=-0.0 size=N/A time=00:21:17.15 bitrate=N/A speed=19.3x    frame=30871 fps=464 q=-0.0 size=N/A time=00:21:27.57 bitrate=N/A speed=19.3x    frame=31129 fps=464 q=-0.0 size=N/A time=00:21:38.33 bitrate=N/A speed=19.3x    frame=31392 fps=464 q=-0.0 size=N/A time=00:21:49.30 bitrate=N/A speed=19.4x    frame=31656 fps=465 q=-0.0 size=N/A time=00:22:00.31 bitrate=N/A speed=19.4x    frame=31926 fps=465 q=-0.0 size=N/A time=00:22:11.58 bitrate=N/A speed=19.4x    frame=32179 fps=465 q=-0.0 size=N/A time=00:22:22.13 bitrate=N/A speed=19.4x    frame=32422 fps=465 q=-0.0 size=N/A time=00:22:32.26 bitrate=N/A speed=19.4x    frame=32646 fps=465 q=-0.0 size=N/A time=00:22:41.61 bitrate=N/A speed=19.4x    frame=32871 fps=465 q=-0.0 size=N/A time=00:22:50.99 bitrate=N/A speed=19.4x    frame=33087 fps=465 q=-0.0 size=N/A time=00:23:00.00 bitrate=N/A speed=19.4x    frame=33317 fps=464 q=-0.0 size=N/A time=00:23:09.59 bitrate=N/A speed=19.4x    frame=33542 fps=464 q=-0.0 size=N/A time=00:23:18.98 bitrate=N/A speed=19.4x    frame=33779 fps=464 q=-0.0 size=N/A time=00:23:28.86 bitrate=N/A speed=19.4x    frame=34014 fps=464 q=-0.0 size=N/A time=00:23:38.66 bitrate=N/A speed=19.4x    [Parsed_ssim_10 @ 000002687c119840] SSIM Y:0.994036 (22.244403) U:0.993687 (21.997787) V:0.994025 (22.236607) All:0.993976 (22.201027)
[out#0/null @ 000002687c094c00] video:14697KiB audio:267524KiB subtitle:0KiB other streams:0KiB global headers:0KiB muxing overhead: unknown
frame=34204 fps=464 q=-0.0 Lsize=N/A time=00:23:46.59 bitrate=N/A speed=19.4x    
